<?xml version="1.0" standalone="no"?>
<!DOCTYPE svg PUBLIC "-//W3C//DTD SVG 20010904//EN"
 "http://www.w3.org/TR/2001/REC-SVG-20010904/DTD/svg10.dtd">
<svg version="1.0" xmlns="http://www.w3.org/2000/svg"
 width="500.000000pt" height="500.000000pt" viewBox="0 0 500.000000 500.000000"
 preserveAspectRatio="xMidYMid meet">
<metadata>
Created by potrace 1.14, written by Peter Selinger 2001-2017
</metadata>
<g transform="translate(0.000000,500.000000) scale(0.100000,-0.100000)"
fill="#000000" stroke="none">
<path d="M1702 4967 c-50 -53 -16 -113 80 -141 94 -27 274 -117 349 -174 77
-59 137 -125 183 -201 55 -91 55 -97 -1 -110 -178 -44 -362 -198 -446 -374
-52 -108 -86 -303 -59 -343 23 -35 43 -36 699 -36 l644 0 25 23 c22 21 25 31
23 89 -10 287 -216 551 -494 635 -33 10 -62 19 -64 21 -7 6 43 100 80 149 94
128 262 242 452 306 34 12 67 22 72 23 56 12 85 59 66 109 -21 55 -59 58 -183
17 -177 -60 -338 -154 -447 -262 -66 -65 -157 -193 -167 -234 -3 -13 -9 -24
-13 -23 -3 0 -19 28 -36 62 -94 192 -323 369 -597 461 -97 33 -138 33 -166 3z
m948 -777 c38 -10 116 -44 129 -56 2 -2 -6 -12 -19 -22 -32 -26 -32 -88 0
-113 37 -28 77 -24 110 11 l28 30 31 -39 c56 -70 124 -231 106 -249 -4 -4
-247 -7 -542 -7 l-535 0 6 38 c9 55 60 163 102 214 l36 43 28 -30 c19 -21 37
-30 59 -30 29 0 69 28 72 50 1 6 2 16 3 23 3 17 -23 67 -34 67 -26 0 -4 20 48
43 113 51 249 61 372 27z"/>
<path d="M1180 3737 c-20 -7 -73 -48 -129 -102 -166 -158 -192 -194 -197 -280
-4 -77 21 -119 149 -251 l114 -118 -28 -46 c-66 -108 -157 -331 -183 -452 -7
-32 7 -29 -191 -30 -71 0 -147 -4 -167 -10 -52 -15 -102 -60 -129 -115 -21
-44 -23 -60 -23 -223 1 -197 10 -235 75 -298 49 -48 96 -58 274 -57 l154 0 7
-28 c26 -120 109 -326 176 -436 l39 -65 -114 -115 c-122 -123 -145 -156 -151
-219 -4 -43 21 -130 45 -155 113 -120 223 -224 257 -244 57 -34 139 -36 202
-5 27 13 90 67 154 132 l108 110 42 -26 c80 -50 232 -117 359 -159 l129 -42 0
-166 c1 -190 9 -220 76 -278 57 -49 112 -60 287 -58 160 1 204 10 262 55 65
49 76 89 79 274 1 91 2 168 3 172 0 3 16 10 34 13 108 24 321 111 432 178 l59
36 126 -124 c135 -132 156 -144 241 -139 72 4 122 36 242 156 144 144 171 204
142 327 -4 13 -62 81 -130 151 l-125 126 24 35 c60 88 172 357 191 461 l6 33
157 0 c214 -1 262 16 317 117 29 52 30 56 32 216 2 199 -8 244 -72 307 -56 56
-86 63 -272 63 -83 0 -156 3 -162 6 -6 4 -11 16 -11 26 0 59 -97 302 -175 436
l-35 61 114 116 c63 63 122 129 131 146 22 44 21 129 -2 182 -24 54 -226 260
-286 291 -54 28 -147 30 -197 3 -19 -10 -103 -85 -187 -166 -95 -92 -173 -159
-206 -176 l-52 -28 -700 0 -700 0 -50 25 c-35 17 -100 75 -215 190 -175 176
-183 181 -274 179 -22 -1 -57 -6 -76 -12z m1469 -872 c199 -57 348 -206 397
-396 9 -35 17 -86 17 -113 1 -42 -3 -52 -28 -73 -22 -19 -35 -23 -58 -19 -39
8 -67 41 -67 80 -2 165 -133 327 -302 371 -55 15 -183 13 -233 -3 -145 -46
-267 -186 -281 -322 -8 -72 -13 -88 -36 -109 -26 -25 -72 -22 -100 7 -40 39
-23 172 36 292 73 148 248 274 411 297 22 3 41 6 42 7 9 8 156 -6 202 -19z
m-874 -705 c10 -11 19 -51 26 -106 20 -187 80 -315 204 -440 139 -140 293
-206 480 -206 121 0 157 5 247 36 202 71 366 240 436 451 22 65 36 151 33 202
-4 76 88 115 137 58 20 -24 22 -34 17 -103 -6 -97 -11 -120 -41 -210 -144
-430 -586 -677 -1017 -568 -176 45 -297 116 -419 245 -143 151 -221 328 -234
530 -4 56 -1 79 11 98 28 43 87 49 120 13z m784 -7 c39 -49 3 -123 -59 -123
-63 0 -99 73 -61 122 34 43 87 43 120 1z"/>
<path d="M255 3663 c-29 -7 -52 -31 -58 -59 -2 -13 10 -75 28 -137 18 -62 58
-200 90 -307 31 -107 65 -225 76 -263 13 -44 28 -72 42 -81 25 -17 368 -118
375 -111 8 8 52 119 52 131 0 6 -26 18 -57 27 -32 8 -103 28 -158 44 -99 29
-100 30 -111 69 -7 21 -51 172 -98 334 -47 162 -91 305 -97 316 -9 18 -53 48
-62 43 -1 -1 -11 -4 -22 -6z"/>
<path d="M4756 3648 c-21 -19 -42 -82 -121 -363 -53 -186 -98 -341 -100 -343
-2 -2 -87 -28 -190 -57 -103 -30 -189 -56 -192 -59 -3 -3 7 -37 23 -76 20 -53
31 -69 43 -65 55 17 340 98 358 101 44 8 72 23 87 46 8 13 54 160 101 328 129
451 125 432 108 463 -26 51 -76 61 -117 25z"/>
<path d="M4157 1423 c-15 -37 -24 -70 -19 -74 4 -4 103 -47 220 -95 134 -56
214 -95 217 -105 3 -9 8 -30 10 -45 3 -25 10 -64 30 -164 3 -14 9 -50 15 -80
6 -30 12 -66 15 -80 3 -14 8 -41 11 -60 4 -19 8 -44 11 -55 2 -11 10 -54 18
-95 8 -41 16 -84 18 -95 3 -11 10 -51 17 -88 14 -78 37 -107 84 -107 42 1 76
29 78 65 2 34 3 26 -56 325 -24 124 -47 241 -50 260 -27 165 -66 324 -82 340
-11 10 -95 51 -189 90 -93 39 -183 78 -200 85 -49 22 -107 45 -115 45 -3 0
-19 -30 -33 -67z"/>
<path d="M705 1408 c-66 -28 -133 -56 -150 -63 -16 -7 -75 -32 -130 -54 -55
-23 -108 -48 -118 -55 -18 -14 -33 -79 -92 -401 -29 -158 -26 -143 -64 -343
-17 -90 -31 -174 -31 -187 0 -39 33 -69 74 -68 63 2 77 26 101 168 2 17 13 75
24 130 11 55 33 174 51 265 54 282 60 314 68 322 4 3 106 48 227 98 121 51
221 93 223 94 1 2 -12 34 -30 73 l-33 70 -120 -49z"/>
</g>
</svg>
